<svg width="21" height="21" viewBox="0 0 21 21" fill="none" xmlns="http://www.w3.org/2000/svg">
<g clip-path="url(#clip0_2519_140)">
<path fill-rule="evenodd" clip-rule="evenodd" d="M10.7757 2.69198C10.658 2.47173 10.3422 2.47173 10.2245 2.692L2.62244 16.9151C2.51118 17.1234 2.66202 17.375 2.89804 17.375H18.1021C18.3382 17.375 18.489 17.1234 18.3777 16.9151L10.7757 2.69198ZM8.57088 1.80816C9.39495 0.266341 11.6053 0.266339 12.4293 1.80816L20.0314 16.0314C20.8102 17.4885 19.7544 19.25 18.1021 19.25H2.89804C1.2458 19.25 0.189989 17.4885 0.968822 16.0314L8.57088 1.80816ZM11.7501 14.25C11.7501 14.9404 11.1905 15.5 10.5001 15.5C9.80976 15.5 9.2501 14.9404 9.2501 14.25C9.2501 13.5596 9.80976 13 10.5001 13C11.1905 13 11.7501 13.5596 11.7501 14.25ZM11.4376 7.68751C11.4376 7.16974 11.0179 6.75001 10.5001 6.75001C9.98234 6.75001 9.5626 7.16974 9.5626 7.68751V10.8125C9.5626 11.3303 9.98234 11.75 10.5001 11.75C11.0179 11.75 11.4376 11.3303 11.4376 10.8125V7.68751Z" fill="white"/>
</g>
<defs>
<clipPath id="clip0_2519_140">
<rect width="20" height="20" fill="white" transform="translate(0.5 0.5)"/>
</clipPath>
</defs>
</svg>
