<svg width="159" height="44" viewBox="0 0 159 44" fill="none" xmlns="http://www.w3.org/2000/svg">
<path d="M149.901 31.6688C148.732 31.6688 147.774 31.4772 147.027 31.094C146.28 30.7109 145.724 30.1936 145.36 29.5422C145.015 28.8908 144.843 28.1724 144.843 27.3869C144.843 26.5057 145.063 25.7297 145.504 25.0592C145.964 24.3887 146.653 23.8714 147.573 23.5074C148.493 23.1242 149.652 22.9327 151.05 22.9327H154.614C154.614 22.2238 154.518 21.6395 154.326 21.1797C154.135 20.7199 153.828 20.3846 153.407 20.1739C153.004 19.944 152.487 19.829 151.855 19.829C151.108 19.829 150.466 20.0015 149.93 20.3463C149.412 20.672 149.087 21.1797 148.952 21.8694H145.188C145.303 20.8157 145.648 19.9057 146.222 19.1393C146.816 18.373 147.592 17.7791 148.55 17.3576C149.527 16.9361 150.629 16.7254 151.855 16.7254C153.234 16.7254 154.422 16.9553 155.418 17.4151C156.415 17.8557 157.171 18.5167 157.689 19.398C158.225 20.2601 158.493 21.3138 158.493 22.5591V31.3239H155.275L154.872 29.1112H154.786C154.518 29.5326 154.211 29.9062 153.867 30.2319C153.522 30.5384 153.148 30.7971 152.746 31.0078C152.343 31.2186 151.903 31.3814 151.424 31.4964C150.945 31.6113 150.437 31.6688 149.901 31.6688ZM151.079 28.6801C151.596 28.6801 152.047 28.5939 152.43 28.4215C152.832 28.2299 153.177 27.9808 153.464 27.6743C153.752 27.3678 153.972 27.0133 154.125 26.611C154.298 26.1895 154.413 25.7585 154.47 25.3178H151.481C150.887 25.3178 150.399 25.3945 150.016 25.5477C149.652 25.6818 149.374 25.883 149.182 26.1512C149.01 26.4003 148.924 26.6972 148.924 27.0421C148.924 27.3869 149.01 27.6839 149.182 27.9329C149.374 28.182 149.633 28.3736 149.958 28.5077C150.284 28.6226 150.658 28.6801 151.079 28.6801Z" fill="white"/>
<path d="M134.495 31.3239V17.0702H137.857L138.202 20.0589H138.26C138.662 19.1776 139.112 18.4975 139.61 18.0186C140.127 17.5205 140.702 17.1852 141.334 17.0128C141.986 16.8212 142.714 16.7254 143.518 16.7254V20.8348H142.484C141.833 20.8348 141.248 20.9115 140.731 21.0647C140.233 21.1988 139.802 21.4192 139.438 21.7257C139.093 22.0322 138.825 22.4441 138.633 22.9614C138.461 23.4787 138.374 24.1205 138.374 24.8868V31.3239H134.495Z" fill="white"/>
<path d="M125.146 31.6688C123.69 31.6688 122.396 31.3622 121.266 30.7492C120.155 30.1361 119.283 29.274 118.651 28.1628C118.019 27.0517 117.703 25.7776 117.703 24.3408C117.703 22.8464 118.009 21.5341 118.622 20.4038C119.255 19.2543 120.126 18.3538 121.237 17.7025C122.368 17.0511 123.68 16.7254 125.174 16.7254C126.592 16.7254 127.837 17.0319 128.91 17.645C130.002 18.2581 130.845 19.101 131.439 20.1739C132.052 21.2276 132.359 22.425 132.359 23.766C132.359 23.9576 132.359 24.1779 132.359 24.427C132.359 24.6569 132.34 24.8964 132.301 25.1454H120.462V22.7602H128.422C128.364 21.8598 128.029 21.1414 127.416 20.6049C126.822 20.0685 126.075 19.8003 125.174 19.8003C124.504 19.8003 123.891 19.9536 123.335 20.2601C122.78 20.5475 122.339 20.9977 122.013 21.6107C121.688 22.2046 121.525 22.9614 121.525 23.881V24.7144C121.525 25.4998 121.678 26.18 121.985 26.7547C122.291 27.3103 122.713 27.7414 123.249 28.0479C123.805 28.3544 124.427 28.5077 125.117 28.5077C125.826 28.5077 126.42 28.3544 126.899 28.0479C127.378 27.7222 127.742 27.3103 127.991 26.8122H131.956C131.669 27.7126 131.209 28.5364 130.577 29.2836C129.945 30.0116 129.169 30.5959 128.249 31.0366C127.33 31.458 126.295 31.6688 125.146 31.6688Z" fill="white"/>
<path d="M91.9784 31.3239V17.0702H95.3694L95.7142 19.3118H95.8005C96.2411 18.4688 96.8446 17.827 97.6109 17.3864C98.3964 16.9457 99.2968 16.7254 100.312 16.7254C101.04 16.7254 101.701 16.8212 102.295 17.0128C102.889 17.2044 103.416 17.5013 103.876 17.9036C104.335 18.306 104.719 18.8232 105.025 19.4554H105.083C105.619 18.5933 106.299 17.9228 107.123 17.4438C107.947 16.9649 108.943 16.7254 110.112 16.7254C111.261 16.7254 112.238 16.984 113.043 17.5013C113.867 17.9994 114.499 18.737 114.939 19.7141C115.38 20.6911 115.6 21.8981 115.6 23.335V31.3239H111.75V23.6798C111.75 22.492 111.52 21.582 111.06 20.9498C110.6 20.3176 109.872 20.0015 108.876 20.0015C108.244 20.0015 107.688 20.1451 107.209 20.4325C106.749 20.7199 106.385 21.1414 106.117 21.6969C105.849 22.2525 105.715 22.9422 105.715 23.766V31.3239H101.864V23.6798C101.864 22.492 101.634 21.582 101.174 20.9498C100.715 20.3176 99.9961 20.0015 99.019 20.0015C98.4251 20.0015 97.8887 20.1643 97.4097 20.49C96.9308 20.7965 96.5476 21.2467 96.2602 21.8406C95.992 22.4154 95.8579 23.1242 95.8579 23.9672V31.3239H91.9784Z" fill="white"/>
<path d="M80.836 31.6688C79.6673 31.6688 78.7094 31.4772 77.9623 31.094C77.2151 30.7109 76.6595 30.1936 76.2955 29.5422C75.9506 28.8908 75.7782 28.1724 75.7782 27.3869C75.7782 26.5057 75.9985 25.7297 76.4392 25.0592C76.899 24.3887 77.5887 23.8714 78.5083 23.5074C79.4279 23.1242 80.5869 22.9327 81.9855 22.9327H85.5489C85.5489 22.2238 85.4531 21.6395 85.2615 21.1797C85.0699 20.7199 84.7634 20.3846 84.3419 20.1739C83.9396 19.944 83.4223 19.829 82.7901 19.829C82.0429 19.829 81.4011 20.0015 80.8647 20.3463C80.3474 20.672 80.0218 21.1797 79.8876 21.8694H76.1231C76.238 20.8157 76.5829 19.9057 77.1576 19.1393C77.7515 18.373 78.5274 17.7791 79.4853 17.3576C80.4624 16.9361 81.564 16.7254 82.7901 16.7254C84.1695 16.7254 85.3573 16.9553 86.3535 17.4151C87.3498 17.8557 88.1065 18.5167 88.6238 19.398C89.1602 20.2601 89.4284 21.3138 89.4284 22.5591V31.3239H86.2098L85.8075 29.1112H85.7213C85.4531 29.5326 85.1466 29.9062 84.8017 30.2319C84.4569 30.5384 84.0833 30.7971 83.681 31.0078C83.2786 31.2186 82.838 31.3814 82.3591 31.4964C81.8801 31.6113 81.3724 31.6688 80.836 31.6688ZM82.0142 28.6801C82.5315 28.6801 82.9817 28.5939 83.3649 28.4215C83.7672 28.2299 84.112 27.9808 84.3994 27.6743C84.6868 27.3678 84.9071 27.0133 85.0604 26.611C85.2328 26.1895 85.3477 25.7585 85.4052 25.3178H82.4165C81.8226 25.3178 81.3341 25.3945 80.9509 25.5477C80.5869 25.6818 80.3091 25.883 80.1175 26.1512C79.9451 26.4003 79.8589 26.6972 79.8589 27.0421C79.8589 27.3869 79.9451 27.6839 80.1175 27.9329C80.3091 28.182 80.5678 28.3736 80.8935 28.5077C81.2191 28.6226 81.5927 28.6801 82.0142 28.6801Z" fill="white"/>
<path d="M64.755 31.6688C62.7434 31.6688 61 31.2378 59.5248 30.3756C58.0688 29.4944 56.9481 28.2778 56.1626 26.726C55.3771 25.155 54.9843 23.3446 54.9843 21.2947C54.9843 19.2447 55.3771 17.4343 56.1626 15.8633C56.9481 14.2923 58.0688 13.0662 59.5248 12.185C60.9809 11.3037 62.7242 10.863 64.755 10.863C67.1881 10.863 69.1805 11.4665 70.7324 12.6735C72.3033 13.8804 73.2804 15.5855 73.6636 17.7887H69.4104C69.1614 16.7159 68.6441 15.8825 67.8586 15.2886C67.0732 14.6755 66.029 14.369 64.7263 14.369C63.5193 14.369 62.4752 14.6564 61.5939 15.2311C60.7318 15.7867 60.0708 16.5818 59.611 17.6163C59.1512 18.6508 58.9213 19.877 58.9213 21.2947C58.9213 22.7124 59.1512 23.9385 59.611 24.973C60.0708 25.9884 60.7318 26.7739 61.5939 27.3295C62.4752 27.8851 63.5193 28.1629 64.7263 28.1629C66.029 28.1629 67.0732 27.8851 67.8586 27.3295C68.6633 26.7739 69.1901 25.9884 69.4392 24.973H73.6636C73.2996 27.0613 72.3321 28.6993 70.7611 29.8871C69.2093 31.0749 67.2073 31.6688 64.755 31.6688Z" fill="white"/>
<mask id="mask0_2094_840" style="mask-type:alpha" maskUnits="userSpaceOnUse" x="0" y="0" width="44" height="44">
<circle cx="21.5604" cy="21.5606" r="21.5604" fill="#C4C4C4"/>
</mask>
<g mask="url(#mask0_2094_840)">
<circle cx="11.3034" cy="-3.82886" r="17.8878" transform="rotate(-22 11.3034 -3.82886)" fill="white"/>
<circle cx="31.8196" cy="46.9492" r="17.8878" transform="rotate(-22 31.8196 46.9492)" fill="white"/>
<circle cx="-3.82756" cy="31.8183" r="17.8878" transform="rotate(-22 -3.82756 31.8183)" fill="white"/>
<circle cx="46.48" cy="10.1398" r="17.8878" transform="rotate(-22 46.48 10.1398)" fill="white"/>
</g>
</svg>
