<svg width="168" height="36" viewBox="0 0 168 36" fill="none" xmlns="http://www.w3.org/2000/svg">
<rect x="13.8646" y="28.0844" width="22.6907" height="6.94006" fill="white"/>
<circle cx="13.8644" cy="21.1597" r="13.8644" fill="white"/>
<circle cx="35.3899" cy="17.5121" r="17.5119" fill="white"/>
<path d="M154.579 33.3444L157.981 25.6962H157.138L151.235 12.9009H155.509L159.697 22.2066H159.755L163.506 12.9009H167.694L158.737 33.3444H154.579Z" fill="white"/>
<path d="M145.47 27.3248V6.76501H149.396V27.3248H145.47Z" fill="white"/>
<path d="M133.492 27.6738C132.154 27.6738 130.962 27.3442 129.915 26.685C128.888 26.0259 128.083 25.1341 127.502 24.0097C126.92 22.8658 126.629 21.5669 126.629 20.1129C126.629 18.6589 126.92 17.36 127.502 16.2161C128.083 15.0723 128.897 14.1805 129.944 13.5407C130.991 12.8816 132.213 12.552 133.608 12.552C134.694 12.552 135.644 12.7653 136.458 13.1918C137.292 13.5989 137.951 14.132 138.436 14.7912V6.76501H142.362V27.3248H138.988L138.668 24.9693H138.61C138.261 25.5121 137.844 25.9871 137.36 26.3942C136.875 26.8014 136.313 27.1116 135.673 27.3248C135.033 27.5575 134.306 27.6738 133.492 27.6738ZM134.539 24.3586C135.334 24.3586 136.022 24.1841 136.604 23.8352C137.205 23.4668 137.67 22.9628 138 22.323C138.349 21.6832 138.523 20.9368 138.523 20.0838C138.523 19.2502 138.349 18.5135 138 17.8737C137.67 17.2339 137.205 16.7396 136.604 16.3906C136.022 16.0223 135.334 15.8381 134.539 15.8381C133.783 15.8381 133.104 16.0223 132.503 16.3906C131.902 16.7396 131.437 17.2339 131.108 17.8737C130.778 18.5135 130.613 19.2502 130.613 20.0838C130.613 20.9368 130.778 21.6832 131.108 22.323C131.437 22.9628 131.902 23.4668 132.503 23.8352C133.104 24.1841 133.783 24.3586 134.539 24.3586Z" fill="white"/>
<path d="M115.521 27.6737C114.338 27.6737 113.33 27.4217 112.497 26.9176C111.663 26.4135 111.023 25.6671 110.577 24.6784C110.131 23.6703 109.908 22.4392 109.908 20.9852V12.9009H113.834V20.6362C113.834 21.8382 114.077 22.7591 114.561 23.3989C115.046 24.0386 115.812 24.3585 116.859 24.3585C117.537 24.3585 118.128 24.2034 118.633 23.8932C119.156 23.5637 119.563 23.1081 119.854 22.5265C120.145 21.9255 120.29 21.1985 120.29 20.3454V12.9009H124.216V27.3247H120.843L120.523 24.9692H120.436C119.99 25.8029 119.36 26.462 118.545 26.9467C117.731 27.4314 116.723 27.6737 115.521 27.6737Z" fill="white"/>
<path d="M100.25 27.6738C98.8543 27.6738 97.5941 27.3539 96.4697 26.7141C95.3453 26.0744 94.4535 25.1826 93.7943 24.0387C93.1545 22.8949 92.8347 21.5863 92.8347 20.1129C92.8347 18.6201 93.1642 17.3115 93.8234 16.187C94.4825 15.0432 95.3743 14.1514 96.4988 13.5117C97.6232 12.8719 98.8737 12.552 100.25 12.552C101.646 12.552 102.906 12.8719 104.031 13.5117C105.155 14.1514 106.037 15.0432 106.677 16.187C107.336 17.3115 107.666 18.6201 107.666 20.1129C107.666 21.6057 107.336 22.924 106.677 24.0678C106.018 25.1923 105.126 26.0744 104.002 26.7141C102.896 27.3539 101.646 27.6738 100.25 27.6738ZM100.221 24.3295C100.861 24.3295 101.433 24.1744 101.937 23.8643C102.46 23.5541 102.877 23.0888 103.187 22.4684C103.497 21.8286 103.653 21.0435 103.653 20.1129C103.653 19.1629 103.497 18.3778 103.187 17.7574C102.877 17.137 102.46 16.6717 101.937 16.3615C101.433 16.0513 100.88 15.8962 100.279 15.8962C99.6588 15.8962 99.0869 16.0513 98.5635 16.3615C98.04 16.6717 97.6232 17.1467 97.313 17.7865C97.0028 18.4068 96.8477 19.1823 96.8477 20.1129C96.8477 21.0435 97.0028 21.8286 97.313 22.4684C97.6232 23.0888 98.0303 23.5541 98.5344 23.8643C99.0578 24.1744 99.6201 24.3295 100.221 24.3295Z" fill="white"/>
<path d="M86.372 27.3248V6.76501H90.2978V27.3248H86.372Z" fill="white"/>
<path d="M74.7242 27.6737C72.6692 27.6737 70.905 27.2375 69.4315 26.3651C67.9581 25.4733 66.824 24.2423 66.0291 22.6719C65.2343 21.0822 64.8369 19.2501 64.8369 17.1757C64.8369 15.1013 65.2343 13.2693 66.0291 11.6795C66.824 10.0898 67.9581 8.84906 69.4315 7.95726C70.905 7.06547 72.6692 6.61957 74.7242 6.61957C77.1863 6.61957 79.2025 7.23025 80.7729 8.45163C82.3626 9.673 83.3513 11.3984 83.7391 13.6279H79.4352C79.1832 12.5423 78.6597 11.6989 77.8648 11.0979C77.07 10.4776 76.0134 10.1674 74.6951 10.1674C73.4543 10.1674 72.3977 10.4582 71.5253 11.0398C70.6529 11.602 69.9841 12.4066 69.5188 13.4534C69.0535 14.5003 68.8209 15.7411 68.8209 17.1757C68.8209 18.6104 69.0535 19.8511 69.5188 20.898C69.9841 21.9255 70.6529 22.7204 71.5253 23.2826C72.3977 23.8448 73.4543 24.1259 74.6951 24.1259C76.0134 24.1259 77.07 23.8448 77.8648 23.2826C78.6597 22.7204 79.1832 21.9255 79.4352 20.898H83.7391C83.3513 23.0112 82.3626 24.6688 80.7729 25.8708C79.2025 27.0727 77.1863 27.6737 74.7242 27.6737Z" fill="white"/>
</svg>
