<svg width="40" height="60" viewBox="0 0 40 60" fill="none" xmlns="http://www.w3.org/2000/svg">
<g id="Group 166">
<path id="Vector" d="M15 0H5.00003V5H15V0Z" fill="#E90818"/>
<path id="Vector_2" d="M5 5.00014H0V55.0001H5V5.00014Z" fill="#E90818"/>
<path id="Vector_3" d="M15 54.9999H5.00003V59.9999H15V54.9999Z" fill="#E90818"/>
<path id="Vector_4" d="M20 5.00014H15V10.0001H20V5.00014Z" fill="#E90818"/>
<path id="Vector_5" d="M25 9.99986H20V14.9999H25V9.99986Z" fill="#E90818"/>
<path id="Vector_6" d="M30 15H25V20H30V15Z" fill="#E90818"/>
<path id="Vector_7" d="M35 20.0001H30V25.0001H35V20.0001Z" fill="#E90818"/>
<path id="Vector_8" d="M40 24.9999H35V34.9999H40V24.9999Z" fill="#E90818"/>
<path id="Vector_9" d="M20 50.0001H15V55.0001H20V50.0001Z" fill="#E90818"/>
<path id="Vector_10" d="M25 45H20V50H25V45Z" fill="#E90818"/>
<path id="Vector_11" d="M30 39.9999H25V44.9999H30V39.9999Z" fill="#E90818"/>
<path id="Vector_12" d="M35 35.0001H30V40.0001H35V35.0001Z" fill="#E90818"/>
</g>
</svg>
