<svg width="141" height="35" viewBox="0 0 141 35" fill="none" xmlns="http://www.w3.org/2000/svg">
<path d="M126.137 32.1132V12.824H129.375L129.752 14.7124C130.058 14.3168 130.409 13.9481 130.805 13.6063C131.2 13.2646 131.677 12.9948 132.234 12.797C132.792 12.5992 133.448 12.5002 134.204 12.5002C135.463 12.5002 136.578 12.806 137.549 13.4175C138.52 14.029 139.294 14.8653 139.869 15.9264C140.445 16.9696 140.732 18.1746 140.732 19.5415C140.732 20.8724 140.445 22.0684 139.869 23.1295C139.294 24.1907 138.511 25.027 137.522 25.6385C136.551 26.232 135.436 26.5288 134.177 26.5288C133.188 26.5288 132.324 26.3489 131.587 25.9892C130.849 25.6115 130.247 25.0989 129.779 24.4515V32.1132H126.137ZM133.367 23.3723C134.087 23.3723 134.716 23.2105 135.256 22.8867C135.813 22.545 136.245 22.0864 136.551 21.5109C136.875 20.9353 137.036 20.2789 137.036 19.5415C137.036 18.7861 136.875 18.1206 136.551 17.5451C136.245 16.9516 135.813 16.493 135.256 16.1692C134.716 15.8275 134.087 15.6567 133.367 15.6567C132.648 15.6567 132.01 15.8275 131.452 16.1692C130.894 16.493 130.454 16.9516 130.13 17.5451C129.824 18.1206 129.671 18.7771 129.671 19.5145C129.671 20.2699 129.824 20.9353 130.13 21.5109C130.454 22.0864 130.894 22.545 131.452 22.8867C132.01 23.2105 132.648 23.3723 133.367 23.3723Z" fill="white"/>
<path d="M114.636 26.5289C113.539 26.5289 112.595 26.2951 111.803 25.8274C111.03 25.3598 110.436 24.6674 110.023 23.7501C109.627 22.8149 109.429 21.6729 109.429 20.324V12.8241H113.044V20.0002C113.044 21.1153 113.269 21.9696 113.719 22.5631C114.168 23.1566 114.879 23.4534 115.85 23.4534C116.479 23.4534 117.028 23.3095 117.496 23.0217C117.981 22.716 118.359 22.2933 118.629 21.7538C118.916 21.1962 119.06 20.5218 119.06 19.7304V12.8241H122.702V26.2051H119.492L119.222 23.966C118.79 24.7393 118.188 25.3598 117.415 25.8274C116.641 26.2951 115.715 26.5289 114.636 26.5289Z" fill="white"/>
<path d="M104.28 26.2049C103.345 26.2049 102.518 26.0611 101.798 25.7733C101.079 25.4675 100.521 24.973 100.126 24.2895C99.7481 23.5881 99.5593 22.6349 99.5593 21.4299V15.8454H97.2661V12.8239H99.5593L99.9639 9.18188H103.174V12.8239H106.735V15.8454H103.201V21.4838C103.201 22.0953 103.327 22.518 103.579 22.7518C103.849 22.9856 104.316 23.1025 104.982 23.1025H106.681V26.2049H104.28Z" fill="white"/>
<path d="M87.462 26.205V12.824H90.6724L91.0231 15.3599C91.3648 14.7664 91.7695 14.2628 92.2371 13.8491C92.7047 13.4175 93.2443 13.0848 93.8558 12.851C94.4853 12.6171 95.1777 12.5002 95.9331 12.5002V16.3581H94.9349C94.3594 16.3581 93.8378 16.421 93.3702 16.5469C92.9026 16.6728 92.4979 16.8797 92.1562 17.1674C91.8144 17.4552 91.5537 17.8509 91.3738 18.3545C91.1939 18.8401 91.104 19.4516 91.104 20.1889V26.205H87.462Z" fill="white"/>
<path d="M76.3989 26.5288C75.2659 26.5288 74.3306 26.3489 73.5932 25.9892C72.8558 25.6295 72.3073 25.1439 71.9476 24.5324C71.5879 23.9209 71.408 23.2464 71.408 22.509C71.408 21.6817 71.6149 20.9623 72.0285 20.3508C72.4602 19.7213 73.1076 19.2267 73.9709 18.867C74.8342 18.5073 75.9223 18.3275 77.2352 18.3275H80.6075C80.6075 17.68 80.5086 17.1494 80.3107 16.7358C80.1309 16.3041 79.8431 15.9894 79.4474 15.7915C79.0697 15.5757 78.5841 15.4678 77.9906 15.4678C77.2892 15.4678 76.6867 15.6207 76.1831 15.9264C75.6975 16.2322 75.4008 16.6998 75.2928 17.3293H71.7318C71.8397 16.3401 72.1724 15.4858 72.7299 14.7664C73.2875 14.047 74.0249 13.4894 74.9421 13.0938C75.8594 12.6981 76.8755 12.5002 77.9906 12.5002C79.2676 12.5002 80.3737 12.7161 81.3089 13.1477C82.2441 13.5614 82.9636 14.1819 83.4671 15.0092C83.9887 15.8185 84.2495 16.8077 84.2495 17.9768V26.205H81.174L80.7694 24.1277C80.5715 24.4874 80.3287 24.8112 80.0409 25.0989C79.7712 25.3867 79.4564 25.6385 79.0967 25.8543C78.737 26.0701 78.3323 26.232 77.8827 26.3399C77.4511 26.4658 76.9565 26.5288 76.3989 26.5288ZM77.2892 23.7231C77.7748 23.7231 78.1975 23.6421 78.5572 23.4803C78.9349 23.3004 79.2496 23.0666 79.5014 22.7788C79.7712 22.4911 79.978 22.1583 80.1219 21.7806C80.2838 21.403 80.3917 20.9983 80.4456 20.5666H77.6399C77.0824 20.5666 76.6237 20.6386 76.264 20.7825C75.9223 20.9084 75.6705 21.0972 75.5087 21.349C75.3468 21.5828 75.2659 21.8616 75.2659 22.1853C75.2659 22.509 75.3468 22.7878 75.5087 23.0216C75.6705 23.2554 75.9043 23.4353 76.2101 23.5612C76.5158 23.6691 76.8755 23.7231 77.2892 23.7231Z" fill="white"/>
<path d="M66.4481 26.2049C65.5129 26.2049 64.6855 26.0611 63.9661 25.7733C63.2467 25.4675 62.6892 24.973 62.2935 24.2895C61.9158 23.5881 61.727 22.6349 61.727 21.4299V15.8454H59.4338V12.8239H61.727L62.1316 9.18188H65.342V12.8239H68.9031V15.8454H65.369V21.4838C65.369 22.0953 65.4949 22.518 65.7467 22.7518C66.0164 22.9856 66.4841 23.1025 67.1495 23.1025H68.8491V26.2049H66.4481Z" fill="white"/>
<path d="M50.8372 26.5288C49.4703 26.5288 48.2473 26.295 47.1682 25.8274C46.107 25.3598 45.2707 24.6763 44.6592 23.7771C44.0477 22.8778 43.724 21.7897 43.688 20.5128H47.5459C47.5638 21.0703 47.7077 21.5739 47.9775 22.0235C48.2473 22.4732 48.625 22.8329 49.1106 23.1026C49.5962 23.3544 50.1717 23.4803 50.8372 23.4803C51.3947 23.4803 51.8893 23.3904 52.3209 23.2105C52.7526 23.0127 53.0853 22.7429 53.3191 22.4012C53.5529 22.0595 53.6698 21.6548 53.6698 21.1872C53.6698 20.6297 53.535 20.171 53.2652 19.8113C52.9954 19.4516 52.6177 19.1459 52.1321 18.8941C51.6645 18.6423 51.1249 18.4175 50.5134 18.2196C49.9199 18.0038 49.2904 17.788 48.625 17.5722C47.1682 17.0686 46.0531 16.4211 45.2797 15.6298C44.5063 14.8204 44.1197 13.7503 44.1197 12.4194C44.1197 11.2863 44.3894 10.3151 44.929 9.50577C45.4686 8.69643 46.2239 8.07594 47.1951 7.6443C48.1664 7.21265 49.2724 6.99683 50.5134 6.99683C51.7904 6.99683 52.9145 7.22164 53.8857 7.67127C54.8569 8.10292 55.6212 8.7324 56.1788 9.55973C56.7363 10.387 57.0331 11.3583 57.0691 12.4733H53.1573C53.1393 12.0417 53.0224 11.646 52.8066 11.2863C52.5907 10.9266 52.285 10.6388 51.8893 10.423C51.4936 10.1892 51.017 10.0723 50.4595 10.0723C49.9919 10.0543 49.5692 10.1263 49.1915 10.2881C48.8138 10.45 48.5081 10.6838 48.2743 10.9896C48.0584 11.2953 47.9505 11.682 47.9505 12.1496C47.9505 12.6172 48.0584 13.0039 48.2743 13.3097C48.4901 13.6154 48.7958 13.8762 49.1915 14.092C49.5872 14.3078 50.0548 14.5147 50.5944 14.7125C51.1339 14.9103 51.7184 15.1082 52.3479 15.306C53.3011 15.6298 54.1644 16.0164 54.9378 16.4661C55.7292 16.8977 56.3586 17.4643 56.8263 18.1657C57.2939 18.8671 57.5277 19.7933 57.5277 20.9444C57.5277 21.9336 57.2669 22.8508 56.7453 23.6962C56.2417 24.5415 55.4953 25.2249 54.5062 25.7465C53.517 26.268 52.294 26.5288 50.8372 26.5288Z" fill="white"/>
<path d="M0 14.6295C0 6.54992 6.54981 0.00012207 14.6294 0.00012207V20.2088C14.6294 28.2884 8.07959 34.8382 0 34.8382V14.6295Z" fill="white"/>
<path d="M16.7516 7.94961C16.7516 3.55923 20.3107 0.00012207 24.7011 0.00012207C29.0914 0.00012207 32.6505 3.55923 32.6505 7.94962V8.4086C32.6505 12.799 29.0914 16.3581 24.7011 16.3581C20.3107 16.3581 16.7516 12.799 16.7516 8.40859V7.94961Z" fill="white"/>
<path d="M16.7516 26.4297C16.7516 22.0393 20.3107 18.4802 24.7011 18.4802C29.0914 18.4802 32.6505 22.0393 32.6505 26.4297V26.8887C32.6505 31.2791 29.0914 34.8382 24.7011 34.8382C20.3107 34.8382 16.7516 31.2791 16.7516 26.8887V26.4297Z" fill="white"/>
</svg>
