<svg width="203" height="84" viewBox="0 0 203 84" fill="none" xmlns="http://www.w3.org/2000/svg">
<path d="M182.256 83.9426C179.192 83.9426 176.453 83.1968 174.039 81.7051C171.664 80.2134 169.787 78.0142 168.408 75.1073C167.029 72.1622 166.339 68.5286 166.339 64.2066C166.339 60.3818 167.086 56.9968 168.58 54.0517C170.113 51.0684 172.315 48.7352 175.188 47.0523C178.061 45.3312 181.567 44.4706 185.704 44.4706C188.424 44.4706 190.895 44.8722 193.117 45.6754C195.377 46.4786 197.311 47.6452 198.92 49.1751C200.567 50.705 201.832 52.5218 202.713 54.6254L195.76 59.9037C195.415 58.4885 194.802 57.2072 193.921 56.0598C193.04 54.9123 191.91 54.0135 190.531 53.3633C189.19 52.6748 187.581 52.3306 185.704 52.3306C183.367 52.3306 181.413 52.8469 179.843 53.8796C178.272 54.8741 177.104 56.251 176.338 58.0104C175.571 59.7698 175.188 61.8352 175.188 64.2066C175.188 66.6545 175.591 68.7772 176.395 70.5749C177.2 72.3726 178.368 73.7686 179.9 74.7631C181.433 75.7193 183.291 76.1974 185.474 76.1974C187.313 76.1974 188.864 75.9105 190.129 75.3368C191.431 74.7631 192.484 73.9407 193.289 72.8698C194.132 71.7988 194.783 70.5558 195.243 69.1406H195.817L195.587 69.4848C195.473 72.5064 194.879 75.1073 193.806 77.2874C192.733 79.4293 191.22 81.074 189.267 82.2215C187.351 83.3689 185.014 83.9426 182.256 83.9426ZM203 83.4836H197.541L195.587 69.4848H184.555V62.887H203V83.4836Z" fill="white"/>
<path d="M123.515 83.4837H115.297V45.0443H123.515V83.4837Z" fill="white"/>
<path d="M97.9108 69.0832H82.7408V62.4854H97.1063C98.2939 62.4854 99.3474 62.3133 100.267 61.9691C101.186 61.6249 101.895 61.0894 102.393 60.3627C102.929 59.636 103.197 58.6606 103.197 57.4367C103.197 56.2128 102.929 55.2183 102.393 54.4533C101.895 53.6884 101.186 53.1529 100.267 52.8469C99.3474 52.5027 98.2939 52.3306 97.1063 52.3306H82.7408V45.0443H97.3936C100.152 45.0443 102.623 45.4842 104.806 46.3639C106.99 47.2053 108.695 48.5249 109.92 50.3226C111.185 52.082 111.817 54.3195 111.817 57.0351C111.817 59.6742 111.185 61.8352 109.92 63.5181C108.695 65.1628 107.028 66.3676 104.921 67.1326C102.853 67.8976 100.516 68.2609 97.9108 68.2227V69.0832ZM87.74 83.4837H79.5229V45.0443H87.74V83.4837ZM113.311 83.4837H103.829L97.3362 72.5829C96.57 71.3208 95.6889 70.4219 94.6929 69.8865C93.7352 69.351 92.4136 69.0832 90.728 69.0832L98.6578 67.7063C100.19 67.8211 101.454 68.1462 102.45 68.6816C103.485 69.1789 104.366 69.8291 105.094 70.6323C105.821 71.4355 106.53 72.3917 107.22 73.5009L113.311 83.4837Z" fill="white"/>
<path d="M56.3538 84C53.4807 84 50.8566 83.5028 48.4815 82.5083C46.1447 81.4756 44.1144 80.0604 42.3905 78.2628C40.6666 76.4651 39.3259 74.3615 38.3682 71.9518C37.4488 69.5422 36.9891 66.9605 36.9891 64.2066C36.9891 61.4527 37.4488 58.8901 38.3682 56.5187C39.3259 54.1091 40.6666 52.0055 42.3905 50.2078C44.1144 48.4101 46.1447 47.0141 48.4815 46.0196C50.8566 44.9869 53.4807 44.4706 56.3538 44.4706C59.2269 44.4706 61.851 44.9869 64.2261 46.0196C66.6012 47.0141 68.6315 48.4101 70.3171 50.2078C72.0409 52.0055 73.3625 54.1091 74.2819 56.5187C75.2396 58.8901 75.7185 61.4527 75.7185 64.2066C75.7185 66.9605 75.2396 69.5422 74.2819 71.9518C73.3625 74.3615 72.0409 76.4651 70.3171 78.2628C68.6315 80.0604 66.6012 81.4756 64.2261 82.5083C61.851 83.5028 59.2269 84 56.3538 84ZM56.3538 76.0253C58.7289 76.0253 60.7017 75.528 62.2724 74.5336C63.8813 73.5009 65.0689 72.0857 65.835 70.288C66.6395 68.4904 67.0417 66.4632 67.0417 64.2066C67.0417 61.9117 66.6395 59.8846 65.835 58.1251C65.0689 56.3275 63.8813 54.9314 62.2724 53.937C60.7017 52.9043 58.7289 52.3879 56.3538 52.3879C54.017 52.3879 52.0441 52.9043 50.4352 53.937C48.8646 54.9314 47.677 56.3275 46.8726 58.1251C46.0681 59.8846 45.6658 61.9117 45.6658 64.2066C45.6658 66.4632 46.0681 68.4904 46.8726 70.288C47.677 72.0857 48.8646 73.5009 50.4352 74.5336C52.0441 75.528 54.017 76.0253 56.3538 76.0253Z" fill="white"/>
<path d="M19.2433 83.5059H8.46707V76.2003H17.9999C20.2499 76.2003 21.8881 75.836 22.9144 75.1074C23.9407 74.3787 24.4538 73.2283 24.4538 71.6559C24.4538 70.6205 24.1973 69.7768 23.6841 69.1249C23.2104 68.4729 22.4999 67.9936 21.5525 67.6868C20.6052 67.3416 19.4604 67.169 18.1183 67.169H3.78946V60.5538H17.3486C18.4539 60.5538 19.4012 60.4195 20.1907 60.1511C21.0196 59.8826 21.6512 59.4608 22.0854 58.8856C22.5591 58.272 22.7959 57.4666 22.7959 56.4695C22.7959 55.3958 22.5591 54.5713 22.0854 53.996C21.6512 53.3824 21.0196 52.9414 20.1907 52.673C19.3618 52.4045 18.3749 52.2703 17.2302 52.2703H3.78946V44.9647H19.4802C22.4012 44.9647 24.7499 45.4057 26.5262 46.2878C28.342 47.1315 29.6643 48.3011 30.4933 49.7967C31.3222 51.2924 31.7367 52.9414 31.7367 54.7438C31.7367 56.3929 31.3814 57.7926 30.6709 58.9431C29.9999 60.0552 29.092 60.9564 27.9472 61.6467C26.8025 62.2987 25.4999 62.7972 24.0394 63.1424C22.5788 63.4491 21.0788 63.6409 19.5394 63.7176C22.8946 63.8326 25.5591 64.312 27.5328 65.1557C29.5459 65.9994 30.9867 67.1499 31.8551 68.6071C32.7235 70.0261 33.1577 71.6367 33.1577 73.4392C33.1577 75.8552 32.5854 77.7918 31.4406 79.2491C30.2959 80.7064 28.6775 81.7802 26.5854 82.4705C24.4933 83.1608 22.046 83.5059 19.2433 83.5059ZM8.46707 83.5059V76.2003H0L0 44.9647H8.46707V83.5059Z" fill="white"/>
<path d="M96.7048 39.0131H88.4877V0.57373H96.7048V39.0131ZM108.197 7.85999H76.9953V0.57373H108.197V7.85999Z" fill="white"/>
<path d="M56.2414 39.5294C53.3683 39.5294 50.7442 39.0322 48.3691 38.0377C46.0323 37.005 44.002 35.5899 42.2781 33.7922C40.5543 31.9945 39.2135 29.8909 38.2558 27.4813C37.3364 25.0716 36.8767 22.4899 36.8767 19.736C36.8767 16.9822 37.3364 14.4195 38.2558 12.0481C39.2135 9.63852 40.5543 7.53487 42.2781 5.73721C44.002 3.93955 46.0323 2.5435 48.3691 1.54905C50.7442 0.516348 53.3683 0 56.2414 0C59.1145 0 61.7386 0.516348 64.1137 1.54905C66.4888 2.5435 68.5191 3.93955 70.2047 5.73721C71.9286 7.53487 73.2502 9.63852 74.1696 12.0481C75.1273 14.4195 75.6061 16.9822 75.6061 19.736C75.6061 22.4899 75.1273 25.0716 74.1696 27.4813C73.2502 29.8909 71.9286 31.9945 70.2047 33.7922C68.5191 35.5899 66.4888 37.005 64.1137 38.0377C61.7386 39.0322 59.1145 39.5294 56.2414 39.5294ZM56.2414 31.5547C58.6165 31.5547 60.5894 31.0575 62.16 30.063C63.7689 29.0303 64.9565 27.6151 65.7227 25.8175C66.5271 24.0198 66.9294 21.9927 66.9294 19.736C66.9294 17.4411 66.5271 15.414 65.7227 13.6546C64.9565 11.8569 63.7689 10.4609 62.16 9.4664C60.5894 8.4337 58.6165 7.91735 56.2414 7.91735C53.9046 7.91735 51.9318 8.4337 50.3228 9.4664C48.7522 10.4609 47.5647 11.8569 46.7602 13.6546C45.9557 15.414 45.5535 17.4411 45.5535 19.736C45.5535 21.9927 45.9557 24.0198 46.7602 25.8175C47.5647 27.6151 48.7522 29.0303 50.3228 30.063C51.9318 31.0575 53.9046 31.5547 56.2414 31.5547Z" fill="white"/>
<path d="M8.21707 39.0131H0L0 0.57373H7.98722L20.4565 20.9408L24.6512 28.3992V17.6133V0.57373H32.8683V39.0131H21.8931L11.0327 18.7607L8.21707 13.1956V22.6046V39.0131Z" fill="white"/>
<path d="M138.131 83.4837H129.914V45.0443H137.901L150.37 65.4114L154.565 72.8698V62.0838V45.0443H162.782V83.4837H151.807L140.946 63.2313L138.131 57.6662V67.0752V83.4837Z" fill="white"/>
</svg>
